<!--?xml version="1.0" standalone="no"?-->
              <svg id="sw-js-blob-svg" viewBox="0 0 100 100" xmlns="http://www.w3.org/2000/svg" version="1.1">
                    <defs> 
                        <linearGradient id="sw-gradient" x1="0" x2="1" y1="1" y2="0">
                            <stop id="stop1" stop-color="rgba(22, 153, 118, 1)" offset="0%"></stop>
                            <stop id="stop2" stop-color="rgba(29, 205, 159, 1)" offset="100%"></stop>
                        </linearGradient>
                    </defs>
                <path fill="url(#sw-gradient)" d="M18.5,-27.9C25.2,-24.5,32.6,-21.4,34.9,-16C37.3,-10.6,34.6,-3,33.5,4.8C32.4,12.7,32.8,20.8,29.6,27C26.3,33.1,19.3,37.4,12.2,37.8C5.1,38.2,-2,34.7,-7.5,30.7C-13,26.8,-16.9,22.4,-20.4,17.9C-23.9,13.5,-27.1,8.9,-27.8,4C-28.5,-0.9,-26.7,-6.1,-23.9,-10.3C-21,-14.4,-17,-17.3,-12.8,-21.8C-8.7,-26.4,-4.3,-32.5,0.8,-33.7C5.9,-35,11.9,-31.3,18.5,-27.9Z" width="100%" height="100%" transform="translate(50 50)" style="transition: 0.3s;" stroke-width="0"></path>
              </svg>